<svg xmlns="http://www.w3.org/2000/svg" viewBox="0 0 3.44 3.44"><path fill="#9f9f9f" d="M3.363 2.989l-.709-.709c.171-.247.256-.522.256-.825A1.43 1.43 0 0 0 2.796.89a1.454 1.454 0 0 0-.31-.465 1.455 1.455 0 0 0-.465-.31A1.43 1.43 0 0 0 1.455 0 1.43 1.43 0 0 0 .89.115C.71.19.555.295.425.425S.19.71.115.89A1.43 1.43 0 0 0 0 1.455c0 .197.038.386.115.566.076.18.18.334.31.465.13.13.285.233.465.31.18.076.368.114.565.114.303 0 .578-.085.825-.256l.709.707c.05.052.112.079.186.079a.254.254 0 0 0 .186-.079.254.254 0 0 0 .079-.186.253.253 0 0 0-.077-.186zm-1.254-.88a.892.892 0 0 1-.654.272.892.892 0 0 1-.654-.272.892.892 0 0 1-.272-.654C.53 1.2.62.982.801.801a.892.892 0 0 1 .654-.272c.255 0 .473.09.654.272.182.181.272.4.272.654 0 .255-.09.473-.272.654z"></path></svg>